<?xml version="1.0"?>
<svg xmlns="http://www.w3.org/2000/svg" id="Layer_1" data-name="Layer 1" viewBox="0 0 64 64"><title>Dusk Part 2</title><path d="M21.24,2.94H50a3,3,0,0,1,3,3v48a3,3,0,0,1-3,3H12a3,3,0,0,1-3-3V15.18a3,3,0,0,1,.88-2.12l9.24-9.24A3,3,0,0,1,21.24,2.94Z" style="fill:#faefde;"/><polygon points="9 57 8.85 47.54 52.34 4.06 53 27 23 57 9 57" style="fill:#fff7f0;"/><polygon points="8.85 37.15 43.06 2.94 48.81 3.19 9 43 8.85 37.15" style="fill:#fff7f0;"/><polygon points="8.85 31.15 37 3 40 3 8.85 34.15 8.85 31.15" style="fill:#fff7f0;"/><polygon points="43.5 11 44.74 13.26 47 14.5 44.74 15.74 43.5 18 42.26 15.74 40 14.5 42.26 13.26 43.5 11" style="fill:#fff;"/><polygon points="28.42 9 29.27 10.56 30.84 11.42 29.27 12.27 28.42 13.84 27.56 12.27 26 11.42 27.56 10.56 28.42 9" style="fill:#fff;"/><polygon points="14.65 40 15.23 41.06 16.3 41.65 15.23 42.23 14.65 43.3 14.06 42.23 13 41.65 14.06 41.06 14.65 40" style="fill:#fff;"/><polygon points="21 3 21 15 9 15 21 3" style="fill:#bbdef9;"/><circle cx="49" cy="51" r="12" style="fill:#72caaf;"/><path d="M13,50a1,1,0,0,0-1,1v2a1,1,0,0,0,2,0V51A1,1,0,0,0,13,50Z" style="fill:#8d6c9f;"/><path d="M18,50a1,1,0,0,0-1,1v2a1,1,0,0,0,2,0V51A1,1,0,0,0,18,50Z" style="fill:#8d6c9f;"/><path d="M23,50a1,1,0,0,0-1,1v2a1,1,0,0,0,2,0V51A1,1,0,0,0,23,50Z" style="fill:#8d6c9f;"/><path d="M28,50a1,1,0,0,0-1,1v2a1,1,0,0,0,2,0V51A1,1,0,0,0,28,50Z" style="fill:#8d6c9f;"/><path d="M33,50a1,1,0,0,0-1,1v2a1,1,0,0,0,2,0V51A1,1,0,0,0,33,50Z" style="fill:#8d6c9f;"/><path d="M41,22H37a1,1,0,0,0,0,2h4a1,1,0,0,0,0-2Z" style="fill:#8d6c9f;"/><path d="M17,24H33a1,1,0,0,0,0-2H17a1,1,0,0,0,0,2Z" style="fill:#8d6c9f;"/><path d="M17,28H37a1,1,0,0,0,0-2H17a1,1,0,0,0,0,2Z" style="fill:#8d6c9f;"/><path d="M34,36H17a1,1,0,0,0,0,2H34a1,1,0,0,0,0-2Z" style="fill:#8d6c9f;"/><path d="M39,32H17a1,1,0,0,0,0,2H39a1,1,0,0,0,0-2Z" style="fill:#8d6c9f;"/><path d="M55,50H50V45a1,1,0,0,0-2,0v5H43a1,1,0,0,0,0,2h5v5a1,1,0,0,0,2,0V52h5a1,1,0,0,0,0-2Z" style="fill:#f9efde;"/><path d="M13,50a1,1,0,0,0-1,1v2a1,1,0,0,0,2,0V51A1,1,0,0,0,13,50Z" style="fill:#8d6c9f;"/><path d="M18,50a1,1,0,0,0-1,1v2a1,1,0,0,0,2,0V51A1,1,0,0,0,18,50Z" style="fill:#8d6c9f;"/><path d="M23,50a1,1,0,0,0-1,1v2a1,1,0,0,0,2,0V51A1,1,0,0,0,23,50Z" style="fill:#8d6c9f;"/><path d="M28,50a1,1,0,0,0-1,1v2a1,1,0,0,0,2,0V51A1,1,0,0,0,28,50Z" style="fill:#8d6c9f;"/><path d="M33,50a1,1,0,0,0-1,1v2a1,1,0,0,0,2,0V51A1,1,0,0,0,33,50Z" style="fill:#8d6c9f;"/><path d="M54,39V5a3,3,0,0,0-3-3H21.66a5,5,0,0,0-3.54,1.46L9.46,12.12A5,5,0,0,0,8,15.66V55a3,3,0,0,0,3,3H38.06A13,13,0,1,0,54,39ZM19.54,4.88A3,3,0,0,1,20,4.5V13a1,1,0,0,1-1,1H10.5a3,3,0,0,1,.38-.46ZM11,56a1,1,0,0,1-1-1V16h9a3,3,0,0,0,3-3V4H51a1,1,0,0,1,1,1V38.36A13,13,0,0,0,37,56Zm38,6A11,11,0,1,1,60,51,11,11,0,0,1,49,62Z" style="fill:#8d6c9f;"/></svg>
